<?xml version="1.0" encoding="UTF-8"?>
<svg id="Calque_2" data-name="Calque 2" xmlns="http://www.w3.org/2000/svg" viewBox="0 0 78.2 35.9">
  <defs>
    <style>
      .cls-1, .cls-2 {
        fill: #fff;
      }

      .cls-2 {
        fill-rule: evenodd;
      }
    </style>
  </defs>
  <g id="Ebene_1" data-name="Ebene 1">
    <path class="cls-2" d="M66.2,23.4v-14.8l-14.8,5.3v3.7l4.9-1.8v11.1l9.9-3.5Z"/>
    <path class="cls-2" d="M60.5,0c-6.1,0-11.5,3.1-14.8,7.7l2.6,1.8c2.7-3.8,7.1-6.4,12.1-6.4,8.1,0,14.6,6.6,14.6,14.8s-6.4,14.8-14.6,14.8c-5,0-9.4-2.6-12.1-6.4l-2.7,1.9c3.2,4.6,8.5,7.7,14.6,7.7,10,0,18-8,18-18,.1-9.8-7.8-17.9-17.7-17.9"/>
    <path class="cls-1" d="M37.7,9.7c-1.7,0-2.9,0-3.8.1h-1.6v16.4h.6c1.3,0,2.7.1,4.3.1,5.7,0,8.7-2.9,8.7-8.4-.1-5.4-2.9-8.2-8.2-8.2M37.5,23.4c-.6,0-1.5,0-1.9-.1v-10.8c.5,0,1.2-.1,1.9-.1,3.3,0,4.9,1.8,4.9,5.5s-1.5,5.5-4.9,5.5M9.8,9.8l-4.1-.1L0,26.2h3.4l1-3.4h6.3l1,3.4h3.6l-5.5-16.4ZM5.4,20l1.6-5c.2-.7.4-1.5.6-2.2.1.6.3,1.3.6,2.2l1.6,5h-4.4ZM26.6,20.6c-.3-.4-.6-.8-.8-1.2,2.1-.8,3.4-2.4,3.4-4.7,0-3.3-2-5-5.9-5-1.7,0-3.3,0-4.4.1h-1.4v16.4h3.2v-6.3h1.8l3.7,6.3h4l-3.6-5.6ZM20.7,12.5h2.3c1.8,0,2.7.8,2.7,2.4,0,1.5-.9,2.4-2.8,2.4h-2.2v-4.8Z"/>
  </g>
</svg>