<?xml version="1.0" encoding="UTF-8"?>
<svg id="Calque_2" data-name="Calque 2" xmlns="http://www.w3.org/2000/svg" viewBox="0 0 18 20">
  <defs>
    <style>
      .cls-1 {
        fill: #fff;
        fill-rule: evenodd;
      }
    </style>
  </defs>
  <g id="Calque_1-2" data-name="Calque 1">
    <path class="cls-1" d="M8.38.25c.36-.33.89-.33,1.25,0l8.05,7.41c.21.19.32.46.32.75v10.59c0,.27-.1.52-.28.71s-.42.29-.67.29h-5.03c-.52,0-.95-.45-.95-1v-4.24c0-.58-.22-1.13-.61-1.54s-.91-.64-1.46-.64-1.07.23-1.46.64-.61.96-.61,1.54v4.24c0,.55-.43,1-.95,1H.95c-.52,0-.95-.45-.95-1v-10.59c0-.29.12-.56.32-.75L8.38.25ZM1.9,8.87v9.13h3.13v-3.24c0-1.11.42-2.17,1.16-2.95s1.75-1.22,2.81-1.22,2.06.44,2.81,1.22c.74.78,1.16,1.85,1.16,2.95v3.24h3.13v-9.13l-7.1-6.54L1.9,8.87Z"/>
  </g>
</svg>